<?xml version="1.0" encoding="UTF-8"?>
<svg id="Layer_1" xmlns="http://www.w3.org/2000/svg" version="1.1" viewBox="0 0 141.73 141.73">
  <!-- Generator: Adobe Illustrator 29.8.2, SVG Export Plug-In . SVG Version: 2.1.1 Build 3)  -->
  <polygon fill="#FFF" points="113.38 56.69 113.38 0 28.35 0 28.35 56.69 0 56.69 0 141.73 14.17 141.73 14.17 113.38 19.84 113.38 19.84 141.73 29.56 141.73 29.56 113.38 35.23 113.38 35.23 141.73 44.95 141.73 44.95 113.38 50.62 113.38 50.62 141.73 60.34 141.73 60.34 113.38 66.01 113.38 66.01 141.73 75.72 141.73 75.72 113.38 81.39 113.38 81.39 141.73 91.11 141.73 91.11 113.38 96.78 113.38 96.78 141.73 106.5 141.73 106.5 113.38 112.17 113.38 112.17 141.73 121.89 141.73 121.89 113.38 127.56 113.38 127.56 141.73 141.73 141.73 141.73 56.69 113.38 56.69"/>
</svg>